<mxfile host="app.diagrams.net" agent="Mozilla/5.0 (Windows NT 10.0; Win64; x64; rv:130.0) Gecko/20100101 Firefox/130.0" version="24.7.16">
  <diagram name="Page-1" id="fv9fiUofZhVsYIKKZ2r4">
    <mxGraphModel dx="4200" dy="3032" grid="1" gridSize="10" guides="1" tooltips="1" connect="1" arrows="1" fold="1" page="1" pageScale="1" pageWidth="850" pageHeight="1100" math="0" shadow="0">
      <root>
        <mxCell id="0" />
        <mxCell id="1" parent="0" />
        <mxCell id="r8GhyG1JXr7spRQP_wy0-36" value="" style="whiteSpace=wrap;html=1;aspect=fixed;fillColor=#f5f5f5;strokeColor=#666666;fontColor=#333333;" vertex="1" parent="1">
          <mxGeometry x="100" y="-1011" width="299" height="299" as="geometry" />
        </mxCell>
        <mxCell id="r8GhyG1JXr7spRQP_wy0-61" value="" style="whiteSpace=wrap;html=1;aspect=fixed;fillColor=#f5f5f5;strokeColor=#666666;fontColor=#333333;" vertex="1" parent="1">
          <mxGeometry x="410" y="-1011" width="299" height="299" as="geometry" />
        </mxCell>
        <mxCell id="r8GhyG1JXr7spRQP_wy0-62" value="" style="whiteSpace=wrap;html=1;aspect=fixed;fillColor=#f5f5f5;strokeColor=#666666;fontColor=#333333;" vertex="1" parent="1">
          <mxGeometry x="769.5" y="-1011" width="301" height="301" as="geometry" />
        </mxCell>
        <mxCell id="r8GhyG1JXr7spRQP_wy0-58" value="" style="whiteSpace=wrap;html=1;aspect=fixed;fillColor=#dae8fc;strokeColor=#6c8ebf;gradientColor=#7ea6e0;" vertex="1" parent="1">
          <mxGeometry x="411" y="-388" width="300" height="300" as="geometry" />
        </mxCell>
        <mxCell id="r8GhyG1JXr7spRQP_wy0-42" value="" style="whiteSpace=wrap;html=1;aspect=fixed;fillColor=#b1ddf0;strokeColor=#10739e;" vertex="1" parent="1">
          <mxGeometry x="411" y="-701" width="300" height="300" as="geometry" />
        </mxCell>
        <mxCell id="r8GhyG1JXr7spRQP_wy0-3" value="" style="whiteSpace=wrap;html=1;aspect=fixed;fillColor=#dae8fc;strokeColor=#6c8ebf;" vertex="1" parent="1">
          <mxGeometry x="100" y="-701" width="300" height="300" as="geometry" />
        </mxCell>
        <mxCell id="r8GhyG1JXr7spRQP_wy0-4" value="" style="whiteSpace=wrap;html=1;aspect=fixed;fillColor=#d5e8d4;strokeColor=#82b366;" vertex="1" parent="1">
          <mxGeometry x="769.5" y="-701" width="300" height="300" as="geometry" />
        </mxCell>
        <mxCell id="r8GhyG1JXr7spRQP_wy0-5" value="" style="whiteSpace=wrap;html=1;aspect=fixed;fillColor=#60a917;strokeColor=#2D7600;fontColor=#ffffff;" vertex="1" parent="1">
          <mxGeometry x="769.5" y="-391" width="300" height="300" as="geometry" />
        </mxCell>
        <mxCell id="r8GhyG1JXr7spRQP_wy0-6" value="" style="whiteSpace=wrap;html=1;aspect=fixed;fillColor=#fff2cc;strokeColor=#d6b656;" vertex="1" parent="1">
          <mxGeometry x="1101" y="-391" width="300" height="300" as="geometry" />
        </mxCell>
        <mxCell id="r8GhyG1JXr7spRQP_wy0-7" value="" style="whiteSpace=wrap;html=1;aspect=fixed;fillColor=#e1d5e7;strokeColor=#9673a6;" vertex="1" parent="1">
          <mxGeometry x="1101" y="-701" width="300" height="300" as="geometry" />
        </mxCell>
        <mxCell id="r8GhyG1JXr7spRQP_wy0-8" value="Employees/HR" style="rounded=0;whiteSpace=wrap;html=1;" vertex="1" parent="1">
          <mxGeometry x="109.5" y="-691" width="120" height="60" as="geometry" />
        </mxCell>
        <mxCell id="r8GhyG1JXr7spRQP_wy0-9" value="Sales" style="rounded=0;whiteSpace=wrap;html=1;" vertex="1" parent="1">
          <mxGeometry x="781" y="-696" width="120" height="60" as="geometry" />
        </mxCell>
        <mxCell id="r8GhyG1JXr7spRQP_wy0-11" value="Customer Orders" style="rounded=0;whiteSpace=wrap;html=1;" vertex="1" parent="1">
          <mxGeometry x="1111" y="-691" width="120" height="60" as="geometry" />
        </mxCell>
        <mxCell id="r8GhyG1JXr7spRQP_wy0-12" value="Customers" style="rounded=0;whiteSpace=wrap;html=1;" vertex="1" parent="1">
          <mxGeometry x="780.5" y="-381" width="120" height="60" as="geometry" />
        </mxCell>
        <mxCell id="r8GhyG1JXr7spRQP_wy0-13" value="Books" style="rounded=0;whiteSpace=wrap;html=1;" vertex="1" parent="1">
          <mxGeometry x="1111" y="-380" width="120" height="60" as="geometry" />
        </mxCell>
        <mxCell id="r8GhyG1JXr7spRQP_wy0-34" value="&lt;div&gt;&lt;b&gt;Customer ID&lt;/b&gt;&lt;/div&gt;&lt;div&gt;&lt;b&gt;Customer address ID&lt;/b&gt;&lt;br&gt;&lt;/div&gt;&lt;div&gt;Customer first name&lt;/div&gt;&lt;div&gt;Customer last name&lt;/div&gt;&lt;div&gt;Customer phone&lt;/div&gt;&lt;div&gt;Customer Sign in Date&lt;/div&gt;&lt;div&gt;&lt;b&gt;Date ID&lt;/b&gt;&lt;br&gt;&lt;/div&gt;&lt;div&gt;Customer Membership Type&lt;/div&gt;&lt;div&gt;Customer Membership ID&lt;/div&gt;" style="whiteSpace=wrap;html=1;aspect=fixed;" vertex="1" parent="1">
          <mxGeometry x="780" y="-310" width="209" height="209" as="geometry" />
        </mxCell>
        <mxCell id="r8GhyG1JXr7spRQP_wy0-35" value="&lt;div&gt;&lt;b&gt;Book ID&lt;/b&gt;&lt;/div&gt;&lt;div&gt;Book Title&lt;/div&gt;&lt;div&gt;Book Author&lt;/div&gt;&lt;div&gt;Publisher ID&lt;/div&gt;&lt;div&gt;Date Year Published&lt;br&gt;&lt;/div&gt;&lt;div&gt;&lt;b&gt;Date ID&lt;/b&gt;&lt;br&gt;&lt;/div&gt;&lt;div&gt;Genre&lt;/div&gt;&lt;div&gt;Stock quantity remaining on shelves&lt;br&gt;&lt;/div&gt;&lt;div&gt;&lt;div&gt;Quantity in storage&lt;/div&gt;&amp;nbsp;Supplier Price per Book&lt;/div&gt;&lt;div&gt;Sale Price per Book&lt;br&gt;&lt;/div&gt;&lt;div&gt;ISBN&lt;/div&gt;" style="whiteSpace=wrap;html=1;aspect=fixed;" vertex="1" parent="1">
          <mxGeometry x="1111" y="-310" width="200" height="200" as="geometry" />
        </mxCell>
        <mxCell id="r8GhyG1JXr7spRQP_wy0-37" value="Supplier Book Lists" style="rounded=0;whiteSpace=wrap;html=1;" vertex="1" parent="1">
          <mxGeometry x="781" y="-996" width="120" height="60" as="geometry" />
        </mxCell>
        <mxCell id="r8GhyG1JXr7spRQP_wy0-38" value="&lt;div&gt;&lt;b&gt;Customer Order ID&lt;br&gt;&lt;/b&gt;&lt;/div&gt;&lt;div&gt;&lt;b&gt;Customer ID&lt;/b&gt;&lt;/div&gt;&lt;div&gt;&lt;b&gt;Book ID&lt;/b&gt;&lt;/div&gt;&lt;div&gt;Order date&amp;nbsp;&lt;/div&gt;&lt;div&gt;&lt;b&gt;Date ID&lt;/b&gt;&lt;/div&gt;&lt;div&gt;&lt;b&gt;Employee ID&lt;br&gt;&lt;/b&gt;&lt;/div&gt;&lt;div&gt;Customer order Number&lt;/div&gt;&lt;div&gt;Customer order Type (online/in person)&lt;br&gt;&lt;/div&gt;&lt;div&gt;Customer order total amount&lt;/div&gt;" style="whiteSpace=wrap;html=1;aspect=fixed;" vertex="1" parent="1">
          <mxGeometry x="1111" y="-622.5" width="201.5" height="201.5" as="geometry" />
        </mxCell>
        <mxCell id="r8GhyG1JXr7spRQP_wy0-39" value="&lt;div&gt;&lt;b&gt;Employee ID&lt;/b&gt;&lt;/div&gt;&lt;div&gt;Employee First Name&lt;/div&gt;&lt;div&gt;Employee Last Name&lt;/div&gt;&lt;div&gt;Employee Home address&lt;/div&gt;&lt;div&gt;Employee Phone Number&lt;/div&gt;&lt;div&gt;&lt;b&gt;Active Employee&lt;br&gt;&lt;/b&gt;&lt;/div&gt;&lt;div&gt;&lt;b&gt;Date ID&lt;/b&gt;&lt;br&gt;&lt;/div&gt;&lt;div&gt;Employee Type (full time, contract)&lt;/div&gt;&lt;div&gt;Employee Supervisor&lt;/div&gt;&lt;div&gt;Employee Direct Reports&lt;br&gt;&lt;/div&gt;&lt;div&gt;Employee title&lt;br&gt;&lt;/div&gt;" style="whiteSpace=wrap;html=1;aspect=fixed;" vertex="1" parent="1">
          <mxGeometry x="425" y="-610" width="200" height="200" as="geometry" />
        </mxCell>
        <mxCell id="r8GhyG1JXr7spRQP_wy0-41" value="&lt;div&gt;&lt;b&gt;Employee ID&lt;/b&gt;&lt;/div&gt;&lt;div&gt;Employee HR File Number&lt;/div&gt;&lt;div&gt;Employee Emergency Contact&lt;/div&gt;&lt;div&gt;Employee Date of Hire &lt;br&gt;&lt;/div&gt;&lt;div&gt;Employee Termination Date&lt;/div&gt;&lt;div&gt;&lt;b&gt;Active Employee&lt;br&gt;&lt;/b&gt;&lt;/div&gt;&lt;div&gt;&lt;b&gt;Date ID&lt;br&gt;&lt;/b&gt;&lt;/div&gt;&lt;div&gt;Employee clearance &lt;br&gt;&lt;/div&gt;&lt;div&gt;Employee Performance review file Number&lt;/div&gt;" style="whiteSpace=wrap;html=1;aspect=fixed;" vertex="1" parent="1">
          <mxGeometry x="112" y="-610" width="200" height="200" as="geometry" />
        </mxCell>
        <mxCell id="r8GhyG1JXr7spRQP_wy0-44" value="&lt;div&gt;&lt;b&gt;Supplier ID&lt;/b&gt;&lt;/div&gt;&lt;div&gt;Supplier Contract Number&lt;/div&gt;&lt;div&gt;Suppler Contact Person&lt;br&gt;&lt;/div&gt;&lt;div&gt;Supplier Phone&lt;/div&gt;&lt;div&gt;Suppler Address&lt;/div&gt;&lt;div&gt;Supplier Account Number&lt;br&gt;&lt;/div&gt;" style="whiteSpace=wrap;html=1;aspect=fixed;" vertex="1" parent="1">
          <mxGeometry x="112" y="-892" width="163" height="163" as="geometry" />
        </mxCell>
        <mxCell id="r8GhyG1JXr7spRQP_wy0-45" value="&lt;div&gt;&lt;b&gt;Supplier ID&lt;/b&gt;&lt;/div&gt;&lt;div&gt;&lt;b&gt;Supplier order date&amp;nbsp;&lt;/b&gt;&lt;/div&gt;&lt;div&gt;&lt;b&gt;Date ID&lt;/b&gt;&lt;/div&gt;&lt;div&gt;&lt;b&gt;Supplier order received&lt;br&gt;&lt;/b&gt;&lt;/div&gt;&lt;div&gt;Supplier total order amount&lt;/div&gt;&lt;div&gt;Supplier PO Number&lt;/div&gt;&lt;div&gt;&lt;b&gt;Book List ID &lt;br&gt;&lt;/b&gt;&lt;/div&gt;&lt;div&gt;&lt;b&gt;Employee ID&lt;br&gt;&lt;/b&gt;&lt;/div&gt;&lt;div&gt;Supplier Estimated DD&lt;b&gt;&lt;br&gt;&lt;/b&gt;&lt;/div&gt;&lt;div&gt;&lt;br&gt;&lt;/div&gt;" style="whiteSpace=wrap;html=1;aspect=fixed;" vertex="1" parent="1">
          <mxGeometry x="419.5" y="-921" width="200" height="200" as="geometry" />
        </mxCell>
        <mxCell id="r8GhyG1JXr7spRQP_wy0-47" value="" style="whiteSpace=wrap;html=1;aspect=fixed;fillColor=#ffcccc;strokeColor=#36393d;" vertex="1" parent="1">
          <mxGeometry x="100" y="-388" width="300" height="300" as="geometry" />
        </mxCell>
        <mxCell id="r8GhyG1JXr7spRQP_wy0-48" value="Employees/ Scheduling" style="rounded=0;whiteSpace=wrap;html=1;" vertex="1" parent="1">
          <mxGeometry x="112" y="-380" width="120" height="60" as="geometry" />
        </mxCell>
        <mxCell id="r8GhyG1JXr7spRQP_wy0-49" value="&lt;div&gt;&lt;b&gt;Employee ID&lt;/b&gt;&lt;/div&gt;&lt;div&gt;Shift type (AM, PM)&lt;/div&gt;&lt;div&gt;Shift Date &lt;b&gt;&lt;br&gt;&lt;/b&gt;&lt;/div&gt;&lt;div&gt;&lt;b&gt;Date ID&lt;br&gt;&lt;/b&gt;&lt;/div&gt;&lt;div&gt;Shift Start time&lt;/div&gt;&lt;div&gt;Shift End time&lt;/div&gt;&lt;div&gt;Shift Supervisor&lt;/div&gt;&lt;div&gt;&lt;br&gt;&lt;/div&gt;" style="whiteSpace=wrap;html=1;aspect=fixed;" vertex="1" parent="1">
          <mxGeometry x="112" y="-310" width="200" height="200" as="geometry" />
        </mxCell>
        <mxCell id="r8GhyG1JXr7spRQP_wy0-146" style="edgeStyle=elbowEdgeStyle;rounded=0;orthogonalLoop=1;jettySize=auto;html=1;exitX=0;exitY=1;exitDx=0;exitDy=0;entryX=1;entryY=0.75;entryDx=0;entryDy=0;fillColor=#0050ef;strokeColor=#001DBC;dashed=1;" edge="1" parent="1" source="r8GhyG1JXr7spRQP_wy0-50" target="r8GhyG1JXr7spRQP_wy0-45">
          <mxGeometry relative="1" as="geometry">
            <Array as="points">
              <mxPoint x="750" y="-740" />
            </Array>
          </mxGeometry>
        </mxCell>
        <mxCell id="r8GhyG1JXr7spRQP_wy0-147" style="edgeStyle=elbowEdgeStyle;rounded=0;orthogonalLoop=1;jettySize=auto;html=1;exitX=0;exitY=0.75;exitDx=0;exitDy=0;entryX=1;entryY=0.5;entryDx=0;entryDy=0;fillColor=#0050ef;strokeColor=#001DBC;dashed=1;" edge="1" parent="1" source="r8GhyG1JXr7spRQP_wy0-50" target="r8GhyG1JXr7spRQP_wy0-34">
          <mxGeometry relative="1" as="geometry" />
        </mxCell>
        <mxCell id="r8GhyG1JXr7spRQP_wy0-148" style="edgeStyle=elbowEdgeStyle;rounded=0;orthogonalLoop=1;jettySize=auto;html=1;exitX=0;exitY=1;exitDx=0;exitDy=0;entryX=1;entryY=0;entryDx=0;entryDy=0;dashed=1;fillColor=#0050ef;strokeColor=#001DBC;" edge="1" parent="1" source="r8GhyG1JXr7spRQP_wy0-50" target="r8GhyG1JXr7spRQP_wy0-39">
          <mxGeometry relative="1" as="geometry">
            <Array as="points">
              <mxPoint x="750" y="-660" />
            </Array>
          </mxGeometry>
        </mxCell>
        <mxCell id="r8GhyG1JXr7spRQP_wy0-50" value="" style="whiteSpace=wrap;html=1;aspect=fixed;fillColor=#1ba1e2;fontColor=#ffffff;strokeColor=#006EAF;" vertex="1" parent="1">
          <mxGeometry x="1103.5" y="-1011" width="299" height="299" as="geometry" />
        </mxCell>
        <mxCell id="r8GhyG1JXr7spRQP_wy0-51" value="Date" style="rounded=0;whiteSpace=wrap;html=1;" vertex="1" parent="1">
          <mxGeometry x="1111" y="-996" width="120" height="60" as="geometry" />
        </mxCell>
        <mxCell id="r8GhyG1JXr7spRQP_wy0-143" style="edgeStyle=elbowEdgeStyle;rounded=0;orthogonalLoop=1;jettySize=auto;html=1;exitX=0;exitY=0.75;exitDx=0;exitDy=0;entryX=1;entryY=0.5;entryDx=0;entryDy=0;fillColor=#0050ef;strokeColor=#001DBC;dashed=1;" edge="1" parent="1" source="r8GhyG1JXr7spRQP_wy0-50" target="r8GhyG1JXr7spRQP_wy0-54">
          <mxGeometry relative="1" as="geometry" />
        </mxCell>
        <mxCell id="r8GhyG1JXr7spRQP_wy0-144" style="edgeStyle=elbowEdgeStyle;rounded=0;orthogonalLoop=1;jettySize=auto;html=1;entryX=1;entryY=0.25;entryDx=0;entryDy=0;fillColor=#0050ef;strokeColor=#001DBC;dashed=1;exitX=0;exitY=0.75;exitDx=0;exitDy=0;" edge="1" parent="1" source="r8GhyG1JXr7spRQP_wy0-50" target="r8GhyG1JXr7spRQP_wy0-46">
          <mxGeometry relative="1" as="geometry" />
        </mxCell>
        <mxCell id="r8GhyG1JXr7spRQP_wy0-52" value="&lt;div&gt;&lt;b&gt;Date ID&lt;/b&gt;&lt;/div&gt;&lt;div&gt;Date calendar (DD-MM-YYYY)&lt;/div&gt;&lt;div&gt;Date Month&lt;/div&gt;&lt;div&gt;Date Year&lt;/div&gt;&lt;div&gt;Week day name&lt;br&gt;&lt;/div&gt;&lt;div&gt;Weekend/Weekday &lt;br&gt;&lt;/div&gt;" style="whiteSpace=wrap;html=1;aspect=fixed;" vertex="1" parent="1">
          <mxGeometry x="1111" y="-930" width="210" height="210" as="geometry" />
        </mxCell>
        <mxCell id="r8GhyG1JXr7spRQP_wy0-53" value="&lt;div&gt;&lt;b&gt;Employee ID&lt;/b&gt;&lt;/div&gt;&lt;div&gt;Employee Salary&lt;/div&gt;&lt;div&gt;Employee SIN&lt;/div&gt;&lt;div&gt;Employee Bank Account Number&lt;/div&gt;&lt;div&gt;&lt;div&gt;Employee Salary Paid&lt;/div&gt;&lt;div&gt;Employee&amp;nbsp; Total Tax deducted&lt;/div&gt;&lt;div&gt;Employee Payroll Date&lt;/div&gt;&lt;div&gt;&lt;b&gt;Date ID&lt;/b&gt;&lt;br&gt;&lt;/div&gt;&lt;div&gt;&lt;br&gt;&lt;br&gt;&lt;/div&gt;&lt;/div&gt;" style="whiteSpace=wrap;html=1;aspect=fixed;" vertex="1" parent="1">
          <mxGeometry x="423" y="-310" width="200" height="200" as="geometry" />
        </mxCell>
        <mxCell id="r8GhyG1JXr7spRQP_wy0-54" value="&lt;div&gt;&lt;b&gt;Supplier ID&lt;/b&gt;&lt;/div&gt;&lt;div&gt;&lt;b&gt;Book List ID &lt;/b&gt;&lt;br&gt;&lt;/div&gt;&lt;div&gt;&lt;b&gt;List created date &lt;br&gt;&lt;/b&gt;&lt;/div&gt;&lt;div&gt;&lt;b&gt;Date ID&lt;/b&gt;&lt;/div&gt;&lt;div&gt;&lt;b&gt;Book ID&lt;/b&gt;&lt;/div&gt;&lt;div&gt;Book quantity&lt;/div&gt;" style="whiteSpace=wrap;html=1;aspect=fixed;" vertex="1" parent="1">
          <mxGeometry x="781" y="-921" width="200" height="200" as="geometry" />
        </mxCell>
        <mxCell id="r8GhyG1JXr7spRQP_wy0-55" style="edgeStyle=orthogonalEdgeStyle;rounded=0;orthogonalLoop=1;jettySize=auto;html=1;exitX=0.5;exitY=1;exitDx=0;exitDy=0;" edge="1" parent="1" source="r8GhyG1JXr7spRQP_wy0-41" target="r8GhyG1JXr7spRQP_wy0-41">
          <mxGeometry relative="1" as="geometry" />
        </mxCell>
        <mxCell id="r8GhyG1JXr7spRQP_wy0-59" value="Employee Payroll" style="rounded=0;whiteSpace=wrap;html=1;" vertex="1" parent="1">
          <mxGeometry x="423" y="-381" width="120" height="60" as="geometry" />
        </mxCell>
        <mxCell id="r8GhyG1JXr7spRQP_wy0-46" value="&lt;div&gt;&lt;b&gt;Sale ID&lt;/b&gt;&lt;/div&gt;&lt;div&gt;&lt;b&gt;Customer Order ID&lt;br&gt;&lt;/b&gt;&lt;/div&gt;&lt;div&gt;&lt;b&gt;Sale date&amp;nbsp;&lt;/b&gt;&lt;/div&gt;&lt;div&gt;&lt;b&gt;Date ID&lt;/b&gt;&lt;br&gt;&lt;/div&gt;&lt;div&gt;&lt;font color=&quot;#001933&quot;&gt;&lt;b&gt;Customer ID&lt;/b&gt;&lt;/font&gt;&lt;/div&gt;&lt;div&gt;&lt;b&gt;Book ID&lt;/b&gt;&lt;/div&gt;&lt;div&gt;&lt;b&gt;Employee ID&lt;br&gt;&lt;/b&gt;&lt;/div&gt;&lt;div&gt;Customer Order Number&lt;/div&gt;&lt;div&gt;Sale total amount&lt;br&gt;&lt;/div&gt;&lt;div&gt;&lt;br&gt;&lt;/div&gt;" style="whiteSpace=wrap;html=1;aspect=fixed;" vertex="1" parent="1">
          <mxGeometry x="781" y="-622.5" width="212.5" height="212.5" as="geometry" />
        </mxCell>
        <mxCell id="r8GhyG1JXr7spRQP_wy0-63" value="Supplier orders" style="rounded=0;whiteSpace=wrap;html=1;" vertex="1" parent="1">
          <mxGeometry x="419.5" y="-996" width="120" height="60" as="geometry" />
        </mxCell>
        <mxCell id="r8GhyG1JXr7spRQP_wy0-64" value="Supplier information" style="rounded=0;whiteSpace=wrap;html=1;" vertex="1" parent="1">
          <mxGeometry x="114" y="-996" width="120" height="60" as="geometry" />
        </mxCell>
        <mxCell id="r8GhyG1JXr7spRQP_wy0-43" value="Employees" style="rounded=0;whiteSpace=wrap;html=1;" vertex="1" parent="1">
          <mxGeometry x="422" y="-691" width="120" height="60" as="geometry" />
        </mxCell>
        <mxCell id="r8GhyG1JXr7spRQP_wy0-104" value="" style="whiteSpace=wrap;html=1;aspect=fixed;fillColor=#cdeb8b;strokeColor=#36393d;" vertex="1" parent="1">
          <mxGeometry x="769.5" y="-80" width="300" height="300" as="geometry" />
        </mxCell>
        <mxCell id="r8GhyG1JXr7spRQP_wy0-105" value="Customer address" style="rounded=0;whiteSpace=wrap;html=1;" vertex="1" parent="1">
          <mxGeometry x="780.5" y="-70" width="120" height="60" as="geometry" />
        </mxCell>
        <mxCell id="r8GhyG1JXr7spRQP_wy0-106" value="&lt;div&gt;&lt;b&gt;Customer ID&lt;/b&gt;&lt;/div&gt;&lt;div&gt;&lt;b&gt;Customer address ID&lt;/b&gt;&lt;br&gt;&lt;/div&gt;&lt;div&gt;Country&lt;/div&gt;&lt;div&gt;State/Province&lt;/div&gt;&lt;div&gt;City&lt;/div&gt;&lt;div&gt;Street&lt;/div&gt;&lt;div&gt;House Number &lt;br&gt;&lt;/div&gt;&lt;div&gt;&amp;nbsp;Apartment/Suite Number&lt;/div&gt;&lt;div&gt;Postal code&lt;br&gt;&lt;/div&gt;" style="whiteSpace=wrap;html=1;aspect=fixed;" vertex="1" parent="1">
          <mxGeometry x="781.5" width="209" height="209" as="geometry" />
        </mxCell>
        <mxCell id="r8GhyG1JXr7spRQP_wy0-107" value="" style="whiteSpace=wrap;html=1;aspect=fixed;fillColor=#e51400;strokeColor=#B20000;fontColor=#ffffff;" vertex="1" parent="1">
          <mxGeometry x="769.5" y="1318" width="300" height="300" as="geometry" />
        </mxCell>
        <mxCell id="r8GhyG1JXr7spRQP_wy0-108" value="Customer address" style="rounded=0;whiteSpace=wrap;html=1;" vertex="1" parent="1">
          <mxGeometry x="785" y="1330" width="120" height="60" as="geometry" />
        </mxCell>
        <mxCell id="r8GhyG1JXr7spRQP_wy0-109" value="&lt;div&gt;&lt;b&gt;Customer ID&lt;/b&gt;&lt;/div&gt;&lt;div&gt;&lt;b&gt;Customer address ID&lt;/b&gt;&lt;/div&gt;&lt;div&gt;&lt;font color=&quot;#0000ff&quot;&gt;&lt;b&gt;Address effective date (Date ID)&lt;br&gt;&lt;/b&gt;&lt;/font&gt;&lt;/div&gt;&lt;div&gt;&lt;font color=&quot;#0000ff&quot;&gt;&lt;b&gt;Address terminated date (Date ID)&lt;/b&gt;&lt;/font&gt;&lt;/div&gt;&lt;div&gt;&lt;font color=&quot;#0000ff&quot;&gt;&lt;b&gt;Active/Inactive address&lt;br&gt;&lt;/b&gt;&lt;/font&gt;&lt;/div&gt;&lt;div&gt;Country&lt;/div&gt;&lt;div&gt;State/Province&lt;/div&gt;&lt;div&gt;City&lt;/div&gt;&lt;div&gt;Street&lt;/div&gt;&lt;div&gt;House Number &lt;br&gt;&lt;/div&gt;&lt;div&gt;&amp;nbsp;Apartment/Suite Number&lt;/div&gt;&lt;div&gt;Postal code&lt;br&gt;&lt;/div&gt;" style="whiteSpace=wrap;html=1;aspect=fixed;" vertex="1" parent="1">
          <mxGeometry x="786" y="1400" width="209" height="209" as="geometry" />
        </mxCell>
        <mxCell id="r8GhyG1JXr7spRQP_wy0-110" value="" style="whiteSpace=wrap;html=1;aspect=fixed;fillColor=#76608a;strokeColor=#432D57;fontColor=#ffffff;" vertex="1" parent="1">
          <mxGeometry x="431.5" y="1680" width="320" height="320" as="geometry" />
        </mxCell>
        <mxCell id="r8GhyG1JXr7spRQP_wy0-111" value="&lt;div&gt;QUESTION&amp;nbsp; 3 &lt;br&gt;&lt;/div&gt;&lt;div&gt;&lt;br&gt;&lt;/div&gt;&lt;div&gt;There are privacy implications which would allow people with access to this information to have full history of the customers address. If there is not explicit consent from&amp;nbsp; the customer about permission to store their data indefinitely and no information about ability to delete this information upon request, this will be unethical. &lt;/div&gt;" style="whiteSpace=wrap;html=1;aspect=fixed;" vertex="1" parent="1">
          <mxGeometry x="456.5" y="1710" width="260" height="260" as="geometry" />
        </mxCell>
        <mxCell id="r8GhyG1JXr7spRQP_wy0-112" value="" style="whiteSpace=wrap;html=1;aspect=fixed;fillColor=#647687;strokeColor=#314354;fontColor=#ffffff;" vertex="1" parent="1">
          <mxGeometry x="61.5" y="1680" width="320" height="320" as="geometry" />
        </mxCell>
        <mxCell id="r8GhyG1JXr7spRQP_wy0-113" value="&lt;div&gt;QUESTION 4&lt;br&gt;&lt;/div&gt;&lt;div&gt;&lt;br&gt;&lt;/div&gt;&lt;div&gt;There is a difference in multiple components of the schema between my and provided architecture:&lt;/div&gt;&lt;div&gt;1. The amount of sub-tables per category&lt;/div&gt;&lt;div&gt;2. Organization of the schema, including codes and connectivity&lt;/div&gt;&lt;div&gt;3.Difference in categories&lt;/div&gt;&lt;div&gt;4. Overall complexity of the schema/architecture is more sophisticated in the provided example&lt;/div&gt;&lt;div&gt;5. Types of collected information fields in each table. &lt;br&gt;&lt;/div&gt;" style="whiteSpace=wrap;html=1;aspect=fixed;" vertex="1" parent="1">
          <mxGeometry x="91.5" y="1710" width="260" height="260" as="geometry" />
        </mxCell>
        <mxCell id="r8GhyG1JXr7spRQP_wy0-114" value="" style="endArrow=classic;startArrow=classic;html=1;rounded=0;exitX=0.989;exitY=0.45;exitDx=0;exitDy=0;exitPerimeter=0;" edge="1" parent="1" source="r8GhyG1JXr7spRQP_wy0-44" target="r8GhyG1JXr7spRQP_wy0-45">
          <mxGeometry width="50" height="50" relative="1" as="geometry">
            <mxPoint x="650" y="-680" as="sourcePoint" />
            <mxPoint x="700" y="-730" as="targetPoint" />
          </mxGeometry>
        </mxCell>
        <mxCell id="r8GhyG1JXr7spRQP_wy0-115" value="" style="endArrow=classic;startArrow=classic;html=1;rounded=0;entryX=1;entryY=0.5;entryDx=0;entryDy=0;" edge="1" parent="1" source="r8GhyG1JXr7spRQP_wy0-54" target="r8GhyG1JXr7spRQP_wy0-45">
          <mxGeometry width="50" height="50" relative="1" as="geometry">
            <mxPoint x="650" y="-680" as="sourcePoint" />
            <mxPoint x="700" y="-730" as="targetPoint" />
          </mxGeometry>
        </mxCell>
        <mxCell id="r8GhyG1JXr7spRQP_wy0-118" value="" style="endArrow=classic;startArrow=classic;html=1;rounded=0;entryX=0.75;entryY=1;entryDx=0;entryDy=0;exitX=0.75;exitY=0;exitDx=0;exitDy=0;" edge="1" parent="1" source="r8GhyG1JXr7spRQP_wy0-39" target="r8GhyG1JXr7spRQP_wy0-45">
          <mxGeometry width="50" height="50" relative="1" as="geometry">
            <mxPoint x="650" y="-680" as="sourcePoint" />
            <mxPoint x="700" y="-730" as="targetPoint" />
          </mxGeometry>
        </mxCell>
        <mxCell id="r8GhyG1JXr7spRQP_wy0-119" value="" style="endArrow=classic;startArrow=classic;html=1;rounded=0;entryX=0;entryY=0.5;entryDx=0;entryDy=0;" edge="1" parent="1" source="r8GhyG1JXr7spRQP_wy0-41" target="r8GhyG1JXr7spRQP_wy0-39">
          <mxGeometry width="50" height="50" relative="1" as="geometry">
            <mxPoint x="650" y="-680" as="sourcePoint" />
            <mxPoint x="700" y="-730" as="targetPoint" />
          </mxGeometry>
        </mxCell>
        <mxCell id="r8GhyG1JXr7spRQP_wy0-120" value="" style="endArrow=classic;startArrow=classic;html=1;rounded=0;exitX=1;exitY=1;exitDx=0;exitDy=0;entryX=0;entryY=0;entryDx=0;entryDy=0;" edge="1" parent="1" source="r8GhyG1JXr7spRQP_wy0-41" target="r8GhyG1JXr7spRQP_wy0-53">
          <mxGeometry width="50" height="50" relative="1" as="geometry">
            <mxPoint x="650" y="-666" as="sourcePoint" />
            <mxPoint x="664.4883720930234" y="-687" as="targetPoint" />
          </mxGeometry>
        </mxCell>
        <mxCell id="r8GhyG1JXr7spRQP_wy0-121" value="" style="endArrow=classic;startArrow=classic;html=1;rounded=0;entryX=1;entryY=0.25;entryDx=0;entryDy=0;exitX=0;exitY=0.25;exitDx=0;exitDy=0;" edge="1" parent="1" source="r8GhyG1JXr7spRQP_wy0-53" target="r8GhyG1JXr7spRQP_wy0-49">
          <mxGeometry width="50" height="50" relative="1" as="geometry">
            <mxPoint x="650" y="-370" as="sourcePoint" />
            <mxPoint x="700" y="-420" as="targetPoint" />
          </mxGeometry>
        </mxCell>
        <mxCell id="r8GhyG1JXr7spRQP_wy0-122" value="" style="endArrow=classic;startArrow=classic;html=1;rounded=0;entryX=0;entryY=1;entryDx=0;entryDy=0;exitX=1;exitY=0;exitDx=0;exitDy=0;" edge="1" parent="1" source="r8GhyG1JXr7spRQP_wy0-49" target="r8GhyG1JXr7spRQP_wy0-39">
          <mxGeometry width="50" height="50" relative="1" as="geometry">
            <mxPoint x="260" y="-340" as="sourcePoint" />
            <mxPoint x="580" y="-290" as="targetPoint" />
          </mxGeometry>
        </mxCell>
        <mxCell id="r8GhyG1JXr7spRQP_wy0-123" value="" style="endArrow=classic;startArrow=classic;html=1;rounded=0;entryX=0.75;entryY=1;entryDx=0;entryDy=0;exitX=0.75;exitY=0;exitDx=0;exitDy=0;" edge="1" parent="1" source="r8GhyG1JXr7spRQP_wy0-53" target="r8GhyG1JXr7spRQP_wy0-39">
          <mxGeometry width="50" height="50" relative="1" as="geometry">
            <mxPoint x="410" y="-340" as="sourcePoint" />
            <mxPoint x="460" y="-390" as="targetPoint" />
          </mxGeometry>
        </mxCell>
        <mxCell id="r8GhyG1JXr7spRQP_wy0-124" value="" style="endArrow=classic;startArrow=classic;html=1;rounded=0;entryX=0.75;entryY=1;entryDx=0;entryDy=0;exitX=0.75;exitY=0;exitDx=0;exitDy=0;" edge="1" parent="1" source="r8GhyG1JXr7spRQP_wy0-49" target="r8GhyG1JXr7spRQP_wy0-41">
          <mxGeometry width="50" height="50" relative="1" as="geometry">
            <mxPoint x="410" y="-340" as="sourcePoint" />
            <mxPoint x="460" y="-390" as="targetPoint" />
          </mxGeometry>
        </mxCell>
        <mxCell id="r8GhyG1JXr7spRQP_wy0-128" value="" style="endArrow=classic;startArrow=classic;html=1;rounded=0;entryX=0;entryY=0.5;entryDx=0;entryDy=0;exitX=1;exitY=0.5;exitDx=0;exitDy=0;" edge="1" parent="1" source="r8GhyG1JXr7spRQP_wy0-46" target="r8GhyG1JXr7spRQP_wy0-38">
          <mxGeometry width="50" height="50" relative="1" as="geometry">
            <mxPoint x="720" y="-470" as="sourcePoint" />
            <mxPoint x="770" y="-520" as="targetPoint" />
          </mxGeometry>
        </mxCell>
        <mxCell id="r8GhyG1JXr7spRQP_wy0-133" value="" style="endArrow=classic;startArrow=classic;html=1;rounded=0;entryX=0;entryY=0.5;entryDx=0;entryDy=0;exitX=1;exitY=0.5;exitDx=0;exitDy=0;" edge="1" parent="1" source="r8GhyG1JXr7spRQP_wy0-39" target="r8GhyG1JXr7spRQP_wy0-46">
          <mxGeometry width="50" height="50" relative="1" as="geometry">
            <mxPoint x="750" y="-420" as="sourcePoint" />
            <mxPoint x="800" y="-470" as="targetPoint" />
          </mxGeometry>
        </mxCell>
        <mxCell id="r8GhyG1JXr7spRQP_wy0-135" value="" style="endArrow=classic;startArrow=classic;html=1;rounded=0;entryX=0.75;entryY=1;entryDx=0;entryDy=0;exitX=0.75;exitY=0;exitDx=0;exitDy=0;" edge="1" parent="1" source="r8GhyG1JXr7spRQP_wy0-34" target="r8GhyG1JXr7spRQP_wy0-46">
          <mxGeometry width="50" height="50" relative="1" as="geometry">
            <mxPoint x="840" y="-280" as="sourcePoint" />
            <mxPoint x="890" y="-330" as="targetPoint" />
          </mxGeometry>
        </mxCell>
        <mxCell id="r8GhyG1JXr7spRQP_wy0-136" value="" style="endArrow=classic;startArrow=classic;html=1;rounded=0;entryX=0.75;entryY=1;entryDx=0;entryDy=0;exitX=0.75;exitY=0;exitDx=0;exitDy=0;" edge="1" parent="1" source="r8GhyG1JXr7spRQP_wy0-35" target="r8GhyG1JXr7spRQP_wy0-38">
          <mxGeometry width="50" height="50" relative="1" as="geometry">
            <mxPoint x="920" y="-320" as="sourcePoint" />
            <mxPoint x="970" y="-370" as="targetPoint" />
          </mxGeometry>
        </mxCell>
        <mxCell id="r8GhyG1JXr7spRQP_wy0-137" value="" style="endArrow=classic;startArrow=classic;html=1;rounded=0;entryX=0.75;entryY=1;entryDx=0;entryDy=0;exitX=0.75;exitY=0;exitDx=0;exitDy=0;" edge="1" parent="1" source="r8GhyG1JXr7spRQP_wy0-106" target="r8GhyG1JXr7spRQP_wy0-34">
          <mxGeometry width="50" height="50" relative="1" as="geometry">
            <mxPoint x="920" y="-40" as="sourcePoint" />
            <mxPoint x="970" y="-90" as="targetPoint" />
          </mxGeometry>
        </mxCell>
        <mxCell id="r8GhyG1JXr7spRQP_wy0-145" style="edgeStyle=elbowEdgeStyle;rounded=0;orthogonalLoop=1;jettySize=auto;html=1;exitX=0.75;exitY=1;exitDx=0;exitDy=0;entryX=0.706;entryY=0.012;entryDx=0;entryDy=0;entryPerimeter=0;fillColor=#0050ef;strokeColor=#001DBC;elbow=vertical;dashed=1;" edge="1" parent="1" source="r8GhyG1JXr7spRQP_wy0-52" target="r8GhyG1JXr7spRQP_wy0-38">
          <mxGeometry relative="1" as="geometry" />
        </mxCell>
        <mxCell id="r8GhyG1JXr7spRQP_wy0-151" style="edgeStyle=elbowEdgeStyle;rounded=0;orthogonalLoop=1;jettySize=auto;html=1;exitX=0;exitY=1;exitDx=0;exitDy=0;entryX=1;entryY=0.5;entryDx=0;entryDy=0;dashed=1;fillColor=#0050ef;strokeColor=#001DBC;" edge="1" parent="1" source="r8GhyG1JXr7spRQP_wy0-50" target="r8GhyG1JXr7spRQP_wy0-53">
          <mxGeometry relative="1" as="geometry">
            <mxPoint x="1114" y="-702" as="sourcePoint" />
            <mxPoint x="635" y="-600" as="targetPoint" />
            <Array as="points">
              <mxPoint x="750" y="-650" />
            </Array>
          </mxGeometry>
        </mxCell>
        <mxCell id="r8GhyG1JXr7spRQP_wy0-152" style="edgeStyle=elbowEdgeStyle;rounded=0;orthogonalLoop=1;jettySize=auto;html=1;exitX=0;exitY=1;exitDx=0;exitDy=0;entryX=1;entryY=0.75;entryDx=0;entryDy=0;dashed=1;fillColor=#0050ef;strokeColor=#001DBC;" edge="1" parent="1" source="r8GhyG1JXr7spRQP_wy0-50" target="r8GhyG1JXr7spRQP_wy0-49">
          <mxGeometry relative="1" as="geometry">
            <mxPoint x="1114" y="-702" as="sourcePoint" />
            <mxPoint x="633" y="-200" as="targetPoint" />
            <Array as="points">
              <mxPoint x="750" y="-430" />
            </Array>
          </mxGeometry>
        </mxCell>
        <mxCell id="r8GhyG1JXr7spRQP_wy0-153" style="edgeStyle=elbowEdgeStyle;rounded=0;orthogonalLoop=1;jettySize=auto;html=1;exitX=0;exitY=1;exitDx=0;exitDy=0;dashed=1;fillColor=#0050ef;strokeColor=#001DBC;entryX=0.99;entryY=0.917;entryDx=0;entryDy=0;entryPerimeter=0;" edge="1" parent="1" source="r8GhyG1JXr7spRQP_wy0-50" target="r8GhyG1JXr7spRQP_wy0-41">
          <mxGeometry relative="1" as="geometry">
            <mxPoint x="1114" y="-702" as="sourcePoint" />
            <mxPoint x="312" y="-410" as="targetPoint" />
            <Array as="points">
              <mxPoint x="750" y="-550" />
            </Array>
          </mxGeometry>
        </mxCell>
        <mxCell id="r8GhyG1JXr7spRQP_wy0-154" style="edgeStyle=elbowEdgeStyle;rounded=0;orthogonalLoop=1;jettySize=auto;html=1;exitX=1;exitY=1;exitDx=0;exitDy=0;entryX=1;entryY=0.25;entryDx=0;entryDy=0;fillColor=#0050ef;strokeColor=#001DBC;elbow=vertical;dashed=1;" edge="1" parent="1" source="r8GhyG1JXr7spRQP_wy0-52" target="r8GhyG1JXr7spRQP_wy0-35">
          <mxGeometry relative="1" as="geometry">
            <mxPoint x="1279" y="-710" as="sourcePoint" />
            <mxPoint x="1263" y="-610" as="targetPoint" />
            <Array as="points">
              <mxPoint x="1350" y="-350" />
            </Array>
          </mxGeometry>
        </mxCell>
        <mxCell id="r8GhyG1JXr7spRQP_wy0-215" value="" style="whiteSpace=wrap;html=1;aspect=fixed;fillColor=#f5f5f5;strokeColor=#666666;fontColor=#333333;" vertex="1" parent="1">
          <mxGeometry x="100" y="380" width="299" height="299" as="geometry" />
        </mxCell>
        <mxCell id="r8GhyG1JXr7spRQP_wy0-216" value="" style="whiteSpace=wrap;html=1;aspect=fixed;fillColor=#f5f5f5;strokeColor=#666666;fontColor=#333333;" vertex="1" parent="1">
          <mxGeometry x="410" y="380" width="299" height="299" as="geometry" />
        </mxCell>
        <mxCell id="r8GhyG1JXr7spRQP_wy0-217" value="" style="whiteSpace=wrap;html=1;aspect=fixed;fillColor=#f5f5f5;strokeColor=#666666;fontColor=#333333;" vertex="1" parent="1">
          <mxGeometry x="769.5" y="380" width="301" height="301" as="geometry" />
        </mxCell>
        <mxCell id="r8GhyG1JXr7spRQP_wy0-218" value="" style="whiteSpace=wrap;html=1;aspect=fixed;fillColor=#dae8fc;strokeColor=#6c8ebf;gradientColor=#7ea6e0;" vertex="1" parent="1">
          <mxGeometry x="411" y="1003" width="300" height="300" as="geometry" />
        </mxCell>
        <mxCell id="r8GhyG1JXr7spRQP_wy0-219" value="" style="whiteSpace=wrap;html=1;aspect=fixed;fillColor=#b1ddf0;strokeColor=#10739e;" vertex="1" parent="1">
          <mxGeometry x="411" y="690" width="300" height="300" as="geometry" />
        </mxCell>
        <mxCell id="r8GhyG1JXr7spRQP_wy0-220" value="" style="whiteSpace=wrap;html=1;aspect=fixed;fillColor=#dae8fc;strokeColor=#6c8ebf;" vertex="1" parent="1">
          <mxGeometry x="100" y="690" width="300" height="300" as="geometry" />
        </mxCell>
        <mxCell id="r8GhyG1JXr7spRQP_wy0-221" value="" style="whiteSpace=wrap;html=1;aspect=fixed;fillColor=#d5e8d4;strokeColor=#82b366;" vertex="1" parent="1">
          <mxGeometry x="769.5" y="690" width="300" height="300" as="geometry" />
        </mxCell>
        <mxCell id="r8GhyG1JXr7spRQP_wy0-222" value="" style="whiteSpace=wrap;html=1;aspect=fixed;fillColor=#60a917;strokeColor=#2D7600;fontColor=#ffffff;" vertex="1" parent="1">
          <mxGeometry x="769.5" y="1000" width="300" height="300" as="geometry" />
        </mxCell>
        <mxCell id="r8GhyG1JXr7spRQP_wy0-223" value="" style="whiteSpace=wrap;html=1;aspect=fixed;fillColor=#fff2cc;strokeColor=#d6b656;" vertex="1" parent="1">
          <mxGeometry x="1101" y="1000" width="300" height="300" as="geometry" />
        </mxCell>
        <mxCell id="r8GhyG1JXr7spRQP_wy0-224" value="" style="whiteSpace=wrap;html=1;aspect=fixed;fillColor=#e1d5e7;strokeColor=#9673a6;" vertex="1" parent="1">
          <mxGeometry x="1101" y="690" width="300" height="300" as="geometry" />
        </mxCell>
        <mxCell id="r8GhyG1JXr7spRQP_wy0-225" value="Employees/HR" style="rounded=0;whiteSpace=wrap;html=1;" vertex="1" parent="1">
          <mxGeometry x="109.5" y="700" width="120" height="60" as="geometry" />
        </mxCell>
        <mxCell id="r8GhyG1JXr7spRQP_wy0-226" value="Sales" style="rounded=0;whiteSpace=wrap;html=1;" vertex="1" parent="1">
          <mxGeometry x="781" y="695" width="120" height="60" as="geometry" />
        </mxCell>
        <mxCell id="r8GhyG1JXr7spRQP_wy0-227" value="Customer Orders" style="rounded=0;whiteSpace=wrap;html=1;" vertex="1" parent="1">
          <mxGeometry x="1111" y="700" width="120" height="60" as="geometry" />
        </mxCell>
        <mxCell id="r8GhyG1JXr7spRQP_wy0-228" value="Customers" style="rounded=0;whiteSpace=wrap;html=1;" vertex="1" parent="1">
          <mxGeometry x="780.5" y="1010" width="120" height="60" as="geometry" />
        </mxCell>
        <mxCell id="r8GhyG1JXr7spRQP_wy0-229" value="Books" style="rounded=0;whiteSpace=wrap;html=1;" vertex="1" parent="1">
          <mxGeometry x="1111" y="1011" width="120" height="60" as="geometry" />
        </mxCell>
        <mxCell id="r8GhyG1JXr7spRQP_wy0-230" value="&lt;div&gt;&lt;b&gt;Customer ID&lt;/b&gt;&lt;/div&gt;&lt;div&gt;&lt;b&gt;Customer address ID&lt;/b&gt;&lt;br&gt;&lt;/div&gt;&lt;div&gt;Customer first name&lt;/div&gt;&lt;div&gt;Customer last name&lt;/div&gt;&lt;div&gt;Customer phone&lt;/div&gt;&lt;div&gt;Customer Sign in Date&lt;/div&gt;&lt;div&gt;&lt;b&gt;Date ID&lt;/b&gt;&lt;br&gt;&lt;/div&gt;&lt;div&gt;Customer Membership Type&lt;/div&gt;&lt;div&gt;Customer Membership ID&lt;/div&gt;" style="whiteSpace=wrap;html=1;aspect=fixed;" vertex="1" parent="1">
          <mxGeometry x="780" y="1081" width="209" height="209" as="geometry" />
        </mxCell>
        <mxCell id="r8GhyG1JXr7spRQP_wy0-231" value="&lt;div&gt;&lt;b&gt;Book ID&lt;/b&gt;&lt;/div&gt;&lt;div&gt;Book Title&lt;/div&gt;&lt;div&gt;Book Author&lt;/div&gt;&lt;div&gt;Publisher ID&lt;/div&gt;&lt;div&gt;Date Year Published&lt;br&gt;&lt;/div&gt;&lt;div&gt;&lt;b&gt;Date ID&lt;/b&gt;&lt;br&gt;&lt;/div&gt;&lt;div&gt;Genre&lt;/div&gt;&lt;div&gt;Stock quantity remaining on shelves&lt;br&gt;&lt;/div&gt;&lt;div&gt;&lt;div&gt;Quantity in storage&lt;/div&gt;&amp;nbsp;Supplier Price per Book&lt;/div&gt;&lt;div&gt;Sale Price per Book&lt;br&gt;&lt;/div&gt;&lt;div&gt;ISBN&lt;/div&gt;" style="whiteSpace=wrap;html=1;aspect=fixed;" vertex="1" parent="1">
          <mxGeometry x="1111" y="1081" width="200" height="200" as="geometry" />
        </mxCell>
        <mxCell id="r8GhyG1JXr7spRQP_wy0-232" value="Supplier Book Lists" style="rounded=0;whiteSpace=wrap;html=1;" vertex="1" parent="1">
          <mxGeometry x="781" y="395" width="120" height="60" as="geometry" />
        </mxCell>
        <mxCell id="r8GhyG1JXr7spRQP_wy0-233" value="&lt;div&gt;&lt;b&gt;Customer Order ID&lt;br&gt;&lt;/b&gt;&lt;/div&gt;&lt;div&gt;&lt;b&gt;Customer ID&lt;/b&gt;&lt;/div&gt;&lt;div&gt;&lt;b&gt;Book ID&lt;/b&gt;&lt;/div&gt;&lt;div&gt;Order date&amp;nbsp;&lt;/div&gt;&lt;div&gt;&lt;b&gt;Date ID&lt;/b&gt;&lt;/div&gt;&lt;div&gt;&lt;b&gt;Employee ID&lt;br&gt;&lt;/b&gt;&lt;/div&gt;&lt;div&gt;Customer order Number&lt;/div&gt;&lt;div&gt;Customer order Type (online/in person)&lt;br&gt;&lt;/div&gt;&lt;div&gt;Customer order total amount&lt;/div&gt;" style="whiteSpace=wrap;html=1;aspect=fixed;" vertex="1" parent="1">
          <mxGeometry x="1111" y="768.5" width="201.5" height="201.5" as="geometry" />
        </mxCell>
        <mxCell id="r8GhyG1JXr7spRQP_wy0-234" value="&lt;div&gt;&lt;b&gt;Employee ID&lt;/b&gt;&lt;/div&gt;&lt;div&gt;Employee First Name&lt;/div&gt;&lt;div&gt;Employee Last Name&lt;/div&gt;&lt;div&gt;Employee Home address&lt;/div&gt;&lt;div&gt;Employee Phone Number&lt;/div&gt;&lt;div&gt;&lt;b&gt;Active Employee&lt;br&gt;&lt;/b&gt;&lt;/div&gt;&lt;div&gt;&lt;b&gt;Date ID&lt;/b&gt;&lt;br&gt;&lt;/div&gt;&lt;div&gt;Employee Type (full time, contract)&lt;/div&gt;&lt;div&gt;Employee Supervisor&lt;/div&gt;&lt;div&gt;Employee Direct Reports&lt;br&gt;&lt;/div&gt;&lt;div&gt;Employee title&lt;br&gt;&lt;/div&gt;" style="whiteSpace=wrap;html=1;aspect=fixed;" vertex="1" parent="1">
          <mxGeometry x="425" y="781" width="200" height="200" as="geometry" />
        </mxCell>
        <mxCell id="r8GhyG1JXr7spRQP_wy0-235" value="&lt;div&gt;&lt;b&gt;Employee ID&lt;/b&gt;&lt;/div&gt;&lt;div&gt;Employee HR File Number&lt;/div&gt;&lt;div&gt;Employee Emergency Contact&lt;/div&gt;&lt;div&gt;Employee Date of Hire &lt;br&gt;&lt;/div&gt;&lt;div&gt;Employee Termination Date&lt;/div&gt;&lt;div&gt;&lt;b&gt;Active Employee&lt;br&gt;&lt;/b&gt;&lt;/div&gt;&lt;div&gt;&lt;b&gt;Date ID&lt;br&gt;&lt;/b&gt;&lt;/div&gt;&lt;div&gt;Employee clearance &lt;br&gt;&lt;/div&gt;&lt;div&gt;Employee Performance review file Number&lt;/div&gt;" style="whiteSpace=wrap;html=1;aspect=fixed;" vertex="1" parent="1">
          <mxGeometry x="112" y="781" width="200" height="200" as="geometry" />
        </mxCell>
        <mxCell id="r8GhyG1JXr7spRQP_wy0-236" value="&lt;div&gt;&lt;b&gt;Supplier ID&lt;/b&gt;&lt;/div&gt;&lt;div&gt;Supplier Contract Number&lt;/div&gt;&lt;div&gt;Suppler Contact Person&lt;br&gt;&lt;/div&gt;&lt;div&gt;Supplier Phone&lt;/div&gt;&lt;div&gt;Suppler Address&lt;/div&gt;&lt;div&gt;Supplier Account Number&lt;br&gt;&lt;/div&gt;" style="whiteSpace=wrap;html=1;aspect=fixed;" vertex="1" parent="1">
          <mxGeometry x="112" y="499" width="163" height="163" as="geometry" />
        </mxCell>
        <mxCell id="r8GhyG1JXr7spRQP_wy0-237" value="&lt;div&gt;&lt;b&gt;Supplier ID&lt;/b&gt;&lt;/div&gt;&lt;div&gt;&lt;b&gt;Supplier order date&amp;nbsp;&lt;/b&gt;&lt;/div&gt;&lt;div&gt;&lt;b&gt;Date ID&lt;/b&gt;&lt;/div&gt;&lt;div&gt;&lt;b&gt;Supplier order received&lt;br&gt;&lt;/b&gt;&lt;/div&gt;&lt;div&gt;Supplier total order amount&lt;/div&gt;&lt;div&gt;Supplier PO Number&lt;/div&gt;&lt;div&gt;&lt;b&gt;Book List ID &lt;br&gt;&lt;/b&gt;&lt;/div&gt;&lt;div&gt;&lt;b&gt;Employee ID&lt;br&gt;&lt;/b&gt;&lt;/div&gt;&lt;div&gt;Supplier Estimated DD&lt;b&gt;&lt;br&gt;&lt;/b&gt;&lt;/div&gt;&lt;div&gt;&lt;br&gt;&lt;/div&gt;" style="whiteSpace=wrap;html=1;aspect=fixed;" vertex="1" parent="1">
          <mxGeometry x="419.5" y="470" width="200" height="200" as="geometry" />
        </mxCell>
        <mxCell id="r8GhyG1JXr7spRQP_wy0-238" value="" style="whiteSpace=wrap;html=1;aspect=fixed;fillColor=#ffcccc;strokeColor=#36393d;" vertex="1" parent="1">
          <mxGeometry x="100" y="1003" width="300" height="300" as="geometry" />
        </mxCell>
        <mxCell id="r8GhyG1JXr7spRQP_wy0-239" value="Employees/ Scheduling" style="rounded=0;whiteSpace=wrap;html=1;" vertex="1" parent="1">
          <mxGeometry x="112" y="1011" width="120" height="60" as="geometry" />
        </mxCell>
        <mxCell id="r8GhyG1JXr7spRQP_wy0-240" value="&lt;div&gt;&lt;b&gt;Employee ID&lt;/b&gt;&lt;/div&gt;&lt;div&gt;Shift type (AM, PM)&lt;/div&gt;&lt;div&gt;Shift Date &lt;b&gt;&lt;br&gt;&lt;/b&gt;&lt;/div&gt;&lt;div&gt;&lt;b&gt;Date ID&lt;br&gt;&lt;/b&gt;&lt;/div&gt;&lt;div&gt;Shift Start time&lt;/div&gt;&lt;div&gt;Shift End time&lt;/div&gt;&lt;div&gt;Shift Supervisor&lt;/div&gt;&lt;div&gt;&lt;br&gt;&lt;/div&gt;" style="whiteSpace=wrap;html=1;aspect=fixed;" vertex="1" parent="1">
          <mxGeometry x="112" y="1081" width="200" height="200" as="geometry" />
        </mxCell>
        <mxCell id="r8GhyG1JXr7spRQP_wy0-241" style="edgeStyle=elbowEdgeStyle;rounded=0;orthogonalLoop=1;jettySize=auto;html=1;exitX=0;exitY=1;exitDx=0;exitDy=0;entryX=1;entryY=0.75;entryDx=0;entryDy=0;fillColor=#0050ef;strokeColor=#001DBC;dashed=1;" edge="1" parent="1" source="r8GhyG1JXr7spRQP_wy0-244" target="r8GhyG1JXr7spRQP_wy0-237">
          <mxGeometry relative="1" as="geometry">
            <Array as="points">
              <mxPoint x="750" y="651" />
            </Array>
          </mxGeometry>
        </mxCell>
        <mxCell id="r8GhyG1JXr7spRQP_wy0-242" style="edgeStyle=elbowEdgeStyle;rounded=0;orthogonalLoop=1;jettySize=auto;html=1;exitX=0;exitY=0.75;exitDx=0;exitDy=0;entryX=1;entryY=0.5;entryDx=0;entryDy=0;fillColor=#0050ef;strokeColor=#001DBC;dashed=1;" edge="1" parent="1" source="r8GhyG1JXr7spRQP_wy0-244" target="r8GhyG1JXr7spRQP_wy0-230">
          <mxGeometry relative="1" as="geometry" />
        </mxCell>
        <mxCell id="r8GhyG1JXr7spRQP_wy0-243" style="edgeStyle=elbowEdgeStyle;rounded=0;orthogonalLoop=1;jettySize=auto;html=1;exitX=0;exitY=1;exitDx=0;exitDy=0;entryX=1;entryY=0;entryDx=0;entryDy=0;dashed=1;fillColor=#0050ef;strokeColor=#001DBC;" edge="1" parent="1" source="r8GhyG1JXr7spRQP_wy0-244" target="r8GhyG1JXr7spRQP_wy0-234">
          <mxGeometry relative="1" as="geometry">
            <Array as="points">
              <mxPoint x="750" y="731" />
            </Array>
          </mxGeometry>
        </mxCell>
        <mxCell id="r8GhyG1JXr7spRQP_wy0-244" value="" style="whiteSpace=wrap;html=1;aspect=fixed;fillColor=#1ba1e2;fontColor=#ffffff;strokeColor=#006EAF;" vertex="1" parent="1">
          <mxGeometry x="1103.5" y="380" width="299" height="299" as="geometry" />
        </mxCell>
        <mxCell id="r8GhyG1JXr7spRQP_wy0-245" value="Date" style="rounded=0;whiteSpace=wrap;html=1;" vertex="1" parent="1">
          <mxGeometry x="1111" y="395" width="120" height="60" as="geometry" />
        </mxCell>
        <mxCell id="r8GhyG1JXr7spRQP_wy0-246" style="edgeStyle=elbowEdgeStyle;rounded=0;orthogonalLoop=1;jettySize=auto;html=1;exitX=0;exitY=0.75;exitDx=0;exitDy=0;entryX=1;entryY=0.5;entryDx=0;entryDy=0;fillColor=#0050ef;strokeColor=#001DBC;dashed=1;" edge="1" parent="1" source="r8GhyG1JXr7spRQP_wy0-244" target="r8GhyG1JXr7spRQP_wy0-250">
          <mxGeometry relative="1" as="geometry" />
        </mxCell>
        <mxCell id="r8GhyG1JXr7spRQP_wy0-247" style="edgeStyle=elbowEdgeStyle;rounded=0;orthogonalLoop=1;jettySize=auto;html=1;entryX=1;entryY=0.25;entryDx=0;entryDy=0;fillColor=#0050ef;strokeColor=#001DBC;dashed=1;exitX=0;exitY=0.75;exitDx=0;exitDy=0;" edge="1" parent="1" source="r8GhyG1JXr7spRQP_wy0-244" target="r8GhyG1JXr7spRQP_wy0-253">
          <mxGeometry relative="1" as="geometry" />
        </mxCell>
        <mxCell id="r8GhyG1JXr7spRQP_wy0-248" value="&lt;div&gt;&lt;b&gt;Date ID&lt;/b&gt;&lt;/div&gt;&lt;div&gt;Date calendar (DD-MM-YYYY)&lt;/div&gt;&lt;div&gt;Date Month&lt;/div&gt;&lt;div&gt;Date Year&lt;/div&gt;&lt;div&gt;Week day name&lt;br&gt;&lt;/div&gt;&lt;div&gt;Weekend/Weekday &lt;br&gt;&lt;/div&gt;" style="whiteSpace=wrap;html=1;aspect=fixed;" vertex="1" parent="1">
          <mxGeometry x="1111" y="461" width="210" height="210" as="geometry" />
        </mxCell>
        <mxCell id="r8GhyG1JXr7spRQP_wy0-249" value="&lt;div&gt;&lt;b&gt;Employee ID&lt;/b&gt;&lt;/div&gt;&lt;div&gt;Employee Salary&lt;/div&gt;&lt;div&gt;Employee SIN&lt;/div&gt;&lt;div&gt;Employee Bank Account Number&lt;/div&gt;&lt;div&gt;&lt;div&gt;Employee Salary Paid&lt;/div&gt;&lt;div&gt;Employee&amp;nbsp; Total Tax deducted&lt;/div&gt;&lt;div&gt;Employee Payroll Date&lt;/div&gt;&lt;div&gt;&lt;b&gt;Date ID&lt;/b&gt;&lt;br&gt;&lt;/div&gt;&lt;div&gt;&lt;br&gt;&lt;br&gt;&lt;/div&gt;&lt;/div&gt;" style="whiteSpace=wrap;html=1;aspect=fixed;" vertex="1" parent="1">
          <mxGeometry x="423" y="1081" width="200" height="200" as="geometry" />
        </mxCell>
        <mxCell id="r8GhyG1JXr7spRQP_wy0-250" value="&lt;div&gt;&lt;b&gt;Supplier ID&lt;/b&gt;&lt;/div&gt;&lt;div&gt;&lt;b&gt;Book List ID &lt;/b&gt;&lt;br&gt;&lt;/div&gt;&lt;div&gt;&lt;b&gt;List created date &lt;br&gt;&lt;/b&gt;&lt;/div&gt;&lt;div&gt;&lt;b&gt;Date ID&lt;/b&gt;&lt;/div&gt;&lt;div&gt;&lt;b&gt;Book ID&lt;/b&gt;&lt;/div&gt;&lt;div&gt;Book quantity&lt;/div&gt;" style="whiteSpace=wrap;html=1;aspect=fixed;" vertex="1" parent="1">
          <mxGeometry x="781" y="470" width="200" height="200" as="geometry" />
        </mxCell>
        <mxCell id="r8GhyG1JXr7spRQP_wy0-251" style="edgeStyle=orthogonalEdgeStyle;rounded=0;orthogonalLoop=1;jettySize=auto;html=1;exitX=0.5;exitY=1;exitDx=0;exitDy=0;" edge="1" parent="1" source="r8GhyG1JXr7spRQP_wy0-235" target="r8GhyG1JXr7spRQP_wy0-235">
          <mxGeometry relative="1" as="geometry" />
        </mxCell>
        <mxCell id="r8GhyG1JXr7spRQP_wy0-252" value="Employee Payroll" style="rounded=0;whiteSpace=wrap;html=1;" vertex="1" parent="1">
          <mxGeometry x="423" y="1010" width="120" height="60" as="geometry" />
        </mxCell>
        <mxCell id="r8GhyG1JXr7spRQP_wy0-253" value="&lt;div&gt;&lt;b&gt;Sale ID&lt;/b&gt;&lt;/div&gt;&lt;div&gt;&lt;b&gt;Customer Order ID&lt;br&gt;&lt;/b&gt;&lt;/div&gt;&lt;div&gt;&lt;b&gt;Sale date&amp;nbsp;&lt;/b&gt;&lt;/div&gt;&lt;div&gt;&lt;b&gt;Date ID&lt;/b&gt;&lt;br&gt;&lt;/div&gt;&lt;div&gt;&lt;font color=&quot;#001933&quot;&gt;&lt;b&gt;Customer ID&lt;/b&gt;&lt;/font&gt;&lt;/div&gt;&lt;div&gt;&lt;b&gt;Book ID&lt;/b&gt;&lt;/div&gt;&lt;div&gt;&lt;b&gt;Employee ID&lt;br&gt;&lt;/b&gt;&lt;/div&gt;&lt;div&gt;Customer Order Number&lt;/div&gt;&lt;div&gt;Sale total amount&lt;br&gt;&lt;/div&gt;&lt;div&gt;&lt;br&gt;&lt;/div&gt;" style="whiteSpace=wrap;html=1;aspect=fixed;" vertex="1" parent="1">
          <mxGeometry x="781" y="768.5" width="212.5" height="212.5" as="geometry" />
        </mxCell>
        <mxCell id="r8GhyG1JXr7spRQP_wy0-254" value="Supplier orders" style="rounded=0;whiteSpace=wrap;html=1;" vertex="1" parent="1">
          <mxGeometry x="419.5" y="395" width="120" height="60" as="geometry" />
        </mxCell>
        <mxCell id="r8GhyG1JXr7spRQP_wy0-255" value="Supplier information" style="rounded=0;whiteSpace=wrap;html=1;" vertex="1" parent="1">
          <mxGeometry x="114" y="395" width="120" height="60" as="geometry" />
        </mxCell>
        <mxCell id="r8GhyG1JXr7spRQP_wy0-256" value="Employees" style="rounded=0;whiteSpace=wrap;html=1;" vertex="1" parent="1">
          <mxGeometry x="422" y="700" width="120" height="60" as="geometry" />
        </mxCell>
        <mxCell id="r8GhyG1JXr7spRQP_wy0-257" value="" style="endArrow=classic;startArrow=classic;html=1;rounded=0;exitX=0.989;exitY=0.45;exitDx=0;exitDy=0;exitPerimeter=0;" edge="1" parent="1" source="r8GhyG1JXr7spRQP_wy0-236" target="r8GhyG1JXr7spRQP_wy0-237">
          <mxGeometry width="50" height="50" relative="1" as="geometry">
            <mxPoint x="650" y="711" as="sourcePoint" />
            <mxPoint x="700" y="661" as="targetPoint" />
          </mxGeometry>
        </mxCell>
        <mxCell id="r8GhyG1JXr7spRQP_wy0-258" value="" style="endArrow=classic;startArrow=classic;html=1;rounded=0;entryX=1;entryY=0.5;entryDx=0;entryDy=0;" edge="1" parent="1" source="r8GhyG1JXr7spRQP_wy0-250" target="r8GhyG1JXr7spRQP_wy0-237">
          <mxGeometry width="50" height="50" relative="1" as="geometry">
            <mxPoint x="650" y="711" as="sourcePoint" />
            <mxPoint x="700" y="661" as="targetPoint" />
          </mxGeometry>
        </mxCell>
        <mxCell id="r8GhyG1JXr7spRQP_wy0-259" value="" style="endArrow=classic;startArrow=classic;html=1;rounded=0;entryX=0.75;entryY=1;entryDx=0;entryDy=0;exitX=0.75;exitY=0;exitDx=0;exitDy=0;" edge="1" parent="1" source="r8GhyG1JXr7spRQP_wy0-234" target="r8GhyG1JXr7spRQP_wy0-237">
          <mxGeometry width="50" height="50" relative="1" as="geometry">
            <mxPoint x="650" y="711" as="sourcePoint" />
            <mxPoint x="700" y="661" as="targetPoint" />
          </mxGeometry>
        </mxCell>
        <mxCell id="r8GhyG1JXr7spRQP_wy0-260" value="" style="endArrow=classic;startArrow=classic;html=1;rounded=0;entryX=0;entryY=0.5;entryDx=0;entryDy=0;" edge="1" parent="1" source="r8GhyG1JXr7spRQP_wy0-235" target="r8GhyG1JXr7spRQP_wy0-234">
          <mxGeometry width="50" height="50" relative="1" as="geometry">
            <mxPoint x="650" y="711" as="sourcePoint" />
            <mxPoint x="700" y="661" as="targetPoint" />
          </mxGeometry>
        </mxCell>
        <mxCell id="r8GhyG1JXr7spRQP_wy0-261" value="" style="endArrow=classic;startArrow=classic;html=1;rounded=0;exitX=1;exitY=1;exitDx=0;exitDy=0;entryX=0;entryY=0;entryDx=0;entryDy=0;" edge="1" parent="1" source="r8GhyG1JXr7spRQP_wy0-235" target="r8GhyG1JXr7spRQP_wy0-249">
          <mxGeometry width="50" height="50" relative="1" as="geometry">
            <mxPoint x="650" y="725" as="sourcePoint" />
            <mxPoint x="664.4883720930234" y="704" as="targetPoint" />
          </mxGeometry>
        </mxCell>
        <mxCell id="r8GhyG1JXr7spRQP_wy0-262" value="" style="endArrow=classic;startArrow=classic;html=1;rounded=0;entryX=1;entryY=0.25;entryDx=0;entryDy=0;exitX=0;exitY=0.25;exitDx=0;exitDy=0;" edge="1" parent="1" source="r8GhyG1JXr7spRQP_wy0-249" target="r8GhyG1JXr7spRQP_wy0-240">
          <mxGeometry width="50" height="50" relative="1" as="geometry">
            <mxPoint x="650" y="1021" as="sourcePoint" />
            <mxPoint x="700" y="971" as="targetPoint" />
          </mxGeometry>
        </mxCell>
        <mxCell id="r8GhyG1JXr7spRQP_wy0-263" value="" style="endArrow=classic;startArrow=classic;html=1;rounded=0;entryX=0;entryY=1;entryDx=0;entryDy=0;exitX=1;exitY=0;exitDx=0;exitDy=0;" edge="1" parent="1" source="r8GhyG1JXr7spRQP_wy0-240" target="r8GhyG1JXr7spRQP_wy0-234">
          <mxGeometry width="50" height="50" relative="1" as="geometry">
            <mxPoint x="260" y="1051" as="sourcePoint" />
            <mxPoint x="580" y="1101" as="targetPoint" />
          </mxGeometry>
        </mxCell>
        <mxCell id="r8GhyG1JXr7spRQP_wy0-264" value="" style="endArrow=classic;startArrow=classic;html=1;rounded=0;entryX=0.75;entryY=1;entryDx=0;entryDy=0;exitX=0.75;exitY=0;exitDx=0;exitDy=0;" edge="1" parent="1" source="r8GhyG1JXr7spRQP_wy0-249" target="r8GhyG1JXr7spRQP_wy0-234">
          <mxGeometry width="50" height="50" relative="1" as="geometry">
            <mxPoint x="410" y="1051" as="sourcePoint" />
            <mxPoint x="460" y="1001" as="targetPoint" />
          </mxGeometry>
        </mxCell>
        <mxCell id="r8GhyG1JXr7spRQP_wy0-265" value="" style="endArrow=classic;startArrow=classic;html=1;rounded=0;entryX=0.75;entryY=1;entryDx=0;entryDy=0;exitX=0.75;exitY=0;exitDx=0;exitDy=0;" edge="1" parent="1" source="r8GhyG1JXr7spRQP_wy0-240" target="r8GhyG1JXr7spRQP_wy0-235">
          <mxGeometry width="50" height="50" relative="1" as="geometry">
            <mxPoint x="410" y="1051" as="sourcePoint" />
            <mxPoint x="460" y="1001" as="targetPoint" />
          </mxGeometry>
        </mxCell>
        <mxCell id="r8GhyG1JXr7spRQP_wy0-266" value="" style="endArrow=classic;startArrow=classic;html=1;rounded=0;entryX=0;entryY=0.5;entryDx=0;entryDy=0;exitX=1;exitY=0.5;exitDx=0;exitDy=0;" edge="1" parent="1" source="r8GhyG1JXr7spRQP_wy0-253" target="r8GhyG1JXr7spRQP_wy0-233">
          <mxGeometry width="50" height="50" relative="1" as="geometry">
            <mxPoint x="720" y="921" as="sourcePoint" />
            <mxPoint x="770" y="871" as="targetPoint" />
          </mxGeometry>
        </mxCell>
        <mxCell id="r8GhyG1JXr7spRQP_wy0-267" value="" style="endArrow=classic;startArrow=classic;html=1;rounded=0;entryX=0;entryY=0.5;entryDx=0;entryDy=0;exitX=1;exitY=0.5;exitDx=0;exitDy=0;" edge="1" parent="1" source="r8GhyG1JXr7spRQP_wy0-234" target="r8GhyG1JXr7spRQP_wy0-253">
          <mxGeometry width="50" height="50" relative="1" as="geometry">
            <mxPoint x="750" y="971" as="sourcePoint" />
            <mxPoint x="800" y="921" as="targetPoint" />
          </mxGeometry>
        </mxCell>
        <mxCell id="r8GhyG1JXr7spRQP_wy0-268" value="" style="endArrow=classic;startArrow=classic;html=1;rounded=0;entryX=0.75;entryY=1;entryDx=0;entryDy=0;exitX=0.75;exitY=0;exitDx=0;exitDy=0;" edge="1" parent="1" source="r8GhyG1JXr7spRQP_wy0-230" target="r8GhyG1JXr7spRQP_wy0-253">
          <mxGeometry width="50" height="50" relative="1" as="geometry">
            <mxPoint x="840" y="1111" as="sourcePoint" />
            <mxPoint x="890" y="1061" as="targetPoint" />
          </mxGeometry>
        </mxCell>
        <mxCell id="r8GhyG1JXr7spRQP_wy0-269" value="" style="endArrow=classic;startArrow=classic;html=1;rounded=0;entryX=0.75;entryY=1;entryDx=0;entryDy=0;exitX=0.75;exitY=0;exitDx=0;exitDy=0;" edge="1" parent="1" source="r8GhyG1JXr7spRQP_wy0-231" target="r8GhyG1JXr7spRQP_wy0-233">
          <mxGeometry width="50" height="50" relative="1" as="geometry">
            <mxPoint x="920" y="1071" as="sourcePoint" />
            <mxPoint x="970" y="1021" as="targetPoint" />
          </mxGeometry>
        </mxCell>
        <mxCell id="r8GhyG1JXr7spRQP_wy0-270" style="edgeStyle=elbowEdgeStyle;rounded=0;orthogonalLoop=1;jettySize=auto;html=1;exitX=0.75;exitY=1;exitDx=0;exitDy=0;entryX=0.706;entryY=0.012;entryDx=0;entryDy=0;entryPerimeter=0;fillColor=#0050ef;strokeColor=#001DBC;elbow=vertical;dashed=1;" edge="1" parent="1" source="r8GhyG1JXr7spRQP_wy0-248" target="r8GhyG1JXr7spRQP_wy0-233">
          <mxGeometry relative="1" as="geometry" />
        </mxCell>
        <mxCell id="r8GhyG1JXr7spRQP_wy0-271" style="edgeStyle=elbowEdgeStyle;rounded=0;orthogonalLoop=1;jettySize=auto;html=1;exitX=0;exitY=1;exitDx=0;exitDy=0;entryX=1;entryY=0.5;entryDx=0;entryDy=0;dashed=1;fillColor=#0050ef;strokeColor=#001DBC;" edge="1" parent="1" source="r8GhyG1JXr7spRQP_wy0-244" target="r8GhyG1JXr7spRQP_wy0-249">
          <mxGeometry relative="1" as="geometry">
            <mxPoint x="1114" y="689" as="sourcePoint" />
            <mxPoint x="635" y="791" as="targetPoint" />
            <Array as="points">
              <mxPoint x="750" y="741" />
            </Array>
          </mxGeometry>
        </mxCell>
        <mxCell id="r8GhyG1JXr7spRQP_wy0-272" style="edgeStyle=elbowEdgeStyle;rounded=0;orthogonalLoop=1;jettySize=auto;html=1;exitX=0;exitY=1;exitDx=0;exitDy=0;entryX=1;entryY=0.75;entryDx=0;entryDy=0;dashed=1;fillColor=#0050ef;strokeColor=#001DBC;" edge="1" parent="1" source="r8GhyG1JXr7spRQP_wy0-244" target="r8GhyG1JXr7spRQP_wy0-240">
          <mxGeometry relative="1" as="geometry">
            <mxPoint x="1114" y="689" as="sourcePoint" />
            <mxPoint x="633" y="1191" as="targetPoint" />
            <Array as="points">
              <mxPoint x="750" y="961" />
            </Array>
          </mxGeometry>
        </mxCell>
        <mxCell id="r8GhyG1JXr7spRQP_wy0-273" style="edgeStyle=elbowEdgeStyle;rounded=0;orthogonalLoop=1;jettySize=auto;html=1;exitX=0;exitY=1;exitDx=0;exitDy=0;dashed=1;fillColor=#0050ef;strokeColor=#001DBC;entryX=0.99;entryY=0.917;entryDx=0;entryDy=0;entryPerimeter=0;" edge="1" parent="1" source="r8GhyG1JXr7spRQP_wy0-244" target="r8GhyG1JXr7spRQP_wy0-235">
          <mxGeometry relative="1" as="geometry">
            <mxPoint x="1114" y="689" as="sourcePoint" />
            <mxPoint x="312" y="981" as="targetPoint" />
            <Array as="points">
              <mxPoint x="750" y="841" />
            </Array>
          </mxGeometry>
        </mxCell>
        <mxCell id="r8GhyG1JXr7spRQP_wy0-274" style="edgeStyle=elbowEdgeStyle;rounded=0;orthogonalLoop=1;jettySize=auto;html=1;exitX=1;exitY=1;exitDx=0;exitDy=0;entryX=1;entryY=0.25;entryDx=0;entryDy=0;fillColor=#0050ef;strokeColor=#001DBC;elbow=vertical;dashed=1;" edge="1" parent="1" source="r8GhyG1JXr7spRQP_wy0-248" target="r8GhyG1JXr7spRQP_wy0-231">
          <mxGeometry relative="1" as="geometry">
            <mxPoint x="1279" y="681" as="sourcePoint" />
            <mxPoint x="1263" y="781" as="targetPoint" />
            <Array as="points">
              <mxPoint x="1350" y="1041" />
            </Array>
          </mxGeometry>
        </mxCell>
        <mxCell id="r8GhyG1JXr7spRQP_wy0-275" value="" style="endArrow=classic;startArrow=classic;html=1;rounded=0;entryX=0.75;entryY=1;entryDx=0;entryDy=0;exitX=0.75;exitY=0;exitDx=0;exitDy=0;" edge="1" parent="1" source="r8GhyG1JXr7spRQP_wy0-109" target="r8GhyG1JXr7spRQP_wy0-230">
          <mxGeometry width="50" height="50" relative="1" as="geometry">
            <mxPoint x="640" y="1380" as="sourcePoint" />
            <mxPoint x="690" y="1330" as="targetPoint" />
          </mxGeometry>
        </mxCell>
        <mxCell id="r8GhyG1JXr7spRQP_wy0-276" value="Architecture 1 - not saving previous customer address" style="rounded=0;whiteSpace=wrap;html=1;fillColor=#ffff88;strokeColor=#36393d;" vertex="1" parent="1">
          <mxGeometry x="100" y="-1090" width="660" height="60" as="geometry" />
        </mxCell>
        <mxCell id="r8GhyG1JXr7spRQP_wy0-277" value="Architecture 2 - saving previous customer address" style="rounded=0;whiteSpace=wrap;html=1;fillColor=#ffff88;strokeColor=#36393d;" vertex="1" parent="1">
          <mxGeometry x="100" y="300" width="660" height="60" as="geometry" />
        </mxCell>
      </root>
    </mxGraphModel>
  </diagram>
</mxfile>
